<svg version="1.2" xmlns="http://www.w3.org/2000/svg" viewBox="0 0 193 193" width="193" height="193">
	<title>logo_nike-svg</title>
	<style>
		.s0 { fill: #000000 } 
	</style>
	<g id="Layer">
		<path id="Layer" fill-rule="evenodd" class="s0" d="m38.7 85.8c0 10 7.6 14.8 16.2 14.8q0.9 0 1.7-0.1 0.8-0.1 1.6-0.2 0.8-0.1 1.7-0.3 0.8-0.1 1.6-0.4c0 0 112.1-30.3 112.6-30.5 1.2-0.3 1.4 0.3 0.4 0.8 0 0-103.4 45-112.8 48.7-5.5 2.2-12.6 5.1-19.8 5.1-4.9 0-9.8-1.4-14.3-5.2-3.1-2.7-4.3-6.2-4.3-10.3 0.1-10.7 9.6-25.1 19.4-36.7-2.8 5.6-4 10.3-4 14.3z"/>
	</g>
</svg>