<svg version="1.2" xmlns="http://www.w3.org/2000/svg" viewBox="0 0 193 193" width="193" height="193">
	<title>logo_new_balance-svg</title>
	<style>
		.s0 { fill: #000000 } 
	</style>
	<g id="Layer">
		<path id="Layer" fill-rule="evenodd" class="s0" d="m79.2 94.6l-20.4-1.1 21.5-0.8zm-2.5 4.6l-20.5-1.2 21.5-0.7zm-2.5 4.5l-20.5-1.1 21.5-0.8zm-2.5 4.6l-20.5-1.2 21.6-0.8zm27.5-35.8l-27.5-1.5 27.4-1zm-0.1-4.7l-24.8-1.4 24.7-0.9zm-0.2-4.6l-22.1-1.3 22-0.7zm-0.2-4.6l-19.3-1.1 19.3-0.7zm-0.2-4.5l-16.8-0.9h16.8zm-28.8 57.7h-21.1l21.5-0.7z"/>
		<path id="Layer" fill-rule="evenodd" class="s0" d="m156 67.5c-1.7 7.7-10.3 13.3-15.3 14.4 8.9 2.9 8.9 8.7 7.1 15.1-1.9 6.5-11.8 14.5-22.9 14.5h-41.7l-0.1-1.2 12.8-0.5c0.3 0 0.3-0.3 0.1-0.3l-12.9-0.7-0.1-2.9 15.5-0.6c0.3 0 0.2-0.3 0-0.3l-15.6-0.9-0.1-2.6 18.2-0.7c0.3 0 0.3-0.3 0.1-0.4l-18.4-1-0.1-2.4 21-0.7c0.3 0 0.2-0.3 0.1-0.4l-21.2-1.1v-2.2l23.7-0.8c0.3 0 0.2-0.4 0-0.4l-44.6-2.5 47.1-1.7c0.4 0 0.2-0.3 0.1-0.3l-44.7-2.5 47.2-1.7c0.3 0 0.3-0.4 0.1-0.4l-44.7-2.5 47.1-1.6c0.4 0 0.4-0.4 0.1-0.4l-44.7-2.5 47.1-1.6c0.3 0 0.3-0.2 0.1-0.3l-15.4-0.8 1.6-2.7 16.3-0.6c0.3 0 0.3-0.3 0-0.4l-15.3-0.8 1.5-2.8 16.4-0.6c0.3 0 0.3-0.3 0-0.3l-15.4-0.8 1.5-2.7 16.4-0.5c0.2 0 0.2-0.3 0-0.3l-15.4-0.9 1.6-2.8 16.3-0.5c0.3 0 0.3-0.3 0.1-0.3l-15.5-0.8 0.9-1.6h31c12 0 14.6 7.2 13 14.3zm-30.1 17.8h-9.5l-7.3 12.8h12.9c9 0 13.7-12.8 3.9-12.8zm6.7-20h-4.9l-6.1 10.8h9.5c3.9 0 7-3.9 7.5-5.5 0.4-1.5 0.2-5.1-6-5.3zm57.1 66.9h-13.6c0.6 2.1 2.5 3.5 4.6 3.5 1.7 0 2.9-0.6 3.9-2.1h4.7c-1.1 3.5-4.7 6.1-8.4 6.1-1.3 0-2.5-0.2-3.6-0.7-1.1-0.5-2.2-1.2-3-2-0.9-0.9-1.6-1.9-2-3-0.5-1.2-0.7-2.4-0.7-3.6 0-5.2 4.1-9.4 9.2-9.4 5 0 9.1 4.1 9.1 9.1 0 0.6 0 1.1-0.2 2.1zm-4-3.3c-0.6-2.5-2.4-4-4.8-4-2.4 0-4.3 1.5-4.9 4zm-52.7-7.1v17.5h-4v-2.3c-1.6 1.8-3.4 2.4-5.6 2.4-5.2 0-8.7-4.4-8.7-9.3 0-5.1 3.9-9.1 8.6-9.1 2.1 0 4 0.8 5.4 2.3v-1.5zm-5.3 12.3c1-1 1.6-2.4 1.6-3.8 0-1.5-0.6-2.8-1.6-3.9-1-1-2.4-1.5-3.8-1.5-1.5 0-2.8 0.5-3.8 1.5-1.1 1.1-1.6 2.4-1.6 3.9 0 1.4 0.5 2.8 1.6 3.8 1 1 2.3 1.6 3.8 1.6 1.4 0 2.8-0.6 3.8-1.6zm-110.6-9.6c0.7 1.5 0.9 2.7 0.9 5.2v9.6h-4.3v-8.8c0-2.2-0.3-5.6-3.3-5.6-3.2 0-3.3 3.7-3.3 5.9v8.5h-4.3v-17.9h3.9v1.7c1.5-1.5 2.9-2.1 4.6-2.1 2.5 0 4.8 1.4 5.8 3.5zm20.7 7.7h-13.6c0.6 2.1 2.5 3.5 4.6 3.5 1.7 0 2.9-0.6 3.9-2.1h4.7c-1.1 3.5-4.7 6.1-8.5 6.1-1.2 0-2.4-0.2-3.5-0.7-1.1-0.5-2.2-1.2-3-2-0.9-0.9-1.6-1.9-2.1-3-0.4-1.2-0.7-2.4-0.6-3.6 0-5.2 4.1-9.4 9.2-9.4 5 0 9.1 4.1 9.1 9.1 0 0.6-0.1 1.1-0.2 2.1zm-4-3.3c-0.6-2.5-2.4-4-4.8-4-2.4 0-4.3 1.5-5 4zm74.8-13.5h4.3v23.8h-4.3zm41.5 9.2c0.7 1.4 0.9 2.6 0.9 5.1v9.6h-4.3v-8.7c0-2.2-0.3-5.7-3.3-5.7-3.2 0-3.4 3.7-3.4 6v8.4h-4.3v-17.9h4v1.7c1.5-1.5 2.8-2.1 4.6-2.1 2.4 0 4.8 1.5 5.8 3.6zm6.6 5.8c0 3.1 2.2 5.4 5.2 5.4 1.7 0 2.9-0.8 3.9-2.4h4.9c-0.6 1.6-0.9 2.2-1.8 3.2q-0.7 0.7-1.5 1.3-0.8 0.6-1.7 1-0.9 0.4-1.9 0.6-1 0.2-2 0.2c-5.2 0-9.4-4.2-9.4-9.4 0-5.1 4.2-9.3 9.4-9.3 4.2 0 7.6 2.6 8.9 6.4h-4.9c-1-1.8-2.2-2.5-4.1-2.5-2.9 0-5 2.3-5 5.5zm-98.6-9h3.6l-5.8 17.9h-2.9l-3.3-11.6-3.5 11.6h-2.8l-5.9-17.9h3.7l3.7 10.9 3-10.9h3.5l3 10.9zm28 8.8c0 4.8-3.5 9.2-8.7 9.2-2.3 0-4.1-0.5-5.7-2.4v2.3h-3.9v-23.8h4.2v7.8c1.4-1.4 3.4-2.3 5.5-2.3 4.6 0 8.6 4 8.6 9.2zm-5.4 3.9c1-1 1.6-2.4 1.6-3.8 0-1.4-0.6-2.8-1.6-3.8-1-1-2.4-1.6-3.8-1.6-1.5 0-2.9 0.6-3.9 1.6-1 1-1.6 2.4-1.6 3.8 0 1.4 0.6 2.8 1.6 3.8 1 1.1 2.4 1.6 3.9 1.6 1.4 0 2.8-0.5 3.8-1.6zm25.1-12.2v17.4h-3.9v-2.3c-1.7 1.9-3.4 2.4-5.7 2.4-5.2 0-8.7-4.3-8.7-9.2 0-5.2 4-9.2 8.6-9.2 2.1 0 4.1 0.9 5.4 2.3v-1.4zm-5.3 12.2c1.1-1 1.6-2.4 1.6-3.8 0-1.4-0.5-2.8-1.6-3.8-1-1-2.4-1.6-3.8-1.6-1.4 0-2.8 0.6-3.8 1.6-1 1-1.6 2.4-1.6 3.8 0 1.4 0.6 2.8 1.6 3.8 1 1.1 2.4 1.6 3.8 1.6 1.4 0 2.8-0.5 3.8-1.6z"/>
	</g>
</svg>